<svg width="16" height="17" viewBox="0 0 16 17" fill="none" xmlns="http://www.w3.org/2000/svg">
<g clip-path="url(#clip0_1_21)">
<path d="M11.9627 2.14129C10.9044 1.08294 9.49715 0.5 8.0005 0.5C6.50356 0.5 5.09662 1.08294 4.03827 2.14129C2.07965 4.09961 1.83625 7.78426 3.51114 10.0167L8.0005 16.5L12.4831 10.0257C14.1648 7.78426 13.9214 4.09961 11.9627 2.14129ZM8.05222 8.0972C6.92462 8.0972 6.00682 7.1794 6.00682 6.0518C6.00682 4.9242 6.92462 4.0064 8.05222 4.0064C9.17982 4.0064 10.0976 4.9242 10.0976 6.0518C10.0976 7.1794 9.17982 8.0972 8.05222 8.0972Z" fill="#879098"/>
</g>
<defs>
<clipPath id="clip0_1_21">
<rect width="16" height="16" fill="white" transform="translate(0 0.5)"/>
</clipPath>
</defs>
</svg>
