<svg width="13" height="11" viewBox="0 0 13 11" fill="none" xmlns="http://www.w3.org/2000/svg">
<path d="M11.2062 0.09013C11.2062 0.09013 12.3393 -0.351745 12.2445 0.721297C12.2133 1.16317 11.9301 2.70988 11.7096 4.38259L10.9542 9.33801C10.9542 9.33801 10.8912 10.064 10.3245 10.1903C9.75809 10.3163 8.90817 9.74838 8.75067 9.62209C8.62467 9.5273 6.38992 8.10688 5.603 7.41271C5.3825 7.22313 5.1305 6.84455 5.6345 6.40267L8.93938 3.24625C9.31709 2.86767 9.6948 1.98392 8.12096 3.05696L3.71388 6.0553C3.71388 6.0553 3.21017 6.37117 2.26604 6.08709L0.219711 5.45563C0.219711 5.45563 -0.535706 4.98226 0.754919 4.50888C3.90288 3.02546 7.77475 1.51055 11.2056 0.09013H11.2062Z" fill="#879098"/>
</svg>
