<svg width="14" height="15" viewBox="0 0 14 15" fill="none" xmlns="http://www.w3.org/2000/svg">
<path d="M6.63153 0.00218294C5.44778 0.016716 2.90281 0.214553 1.47936 1.54269C0.420531 2.60969 0.0508397 4.18723 0.00750924 6.13794C-0.0284458 8.08162 -0.0717763 11.7318 3.38774 12.7256V14.2394C3.38774 14.2394 3.36608 14.8451 3.75974 14.9693C4.24467 15.1255 4.52079 14.6595 4.98175 14.1588L5.84144 13.1701C8.20848 13.3702 10.0214 12.9089 10.2303 12.8405C10.7106 12.6844 13.416 12.3328 13.858 8.68216C14.3116 4.91201 13.6372 2.53656 12.4198 1.46205H12.4125C12.0451 1.11795 10.5686 0.0237481 7.26996 0.0115591C7.26996 0.0115591 7.02519 -0.00531799 6.63153 0.00171413V0.00218294ZM6.6721 1.06216C7.00814 1.05981 7.21234 1.07435 7.21234 1.07435C10.0044 1.08185 11.337 1.93648 11.6514 2.22433C12.6766 3.11788 13.2048 5.25939 12.8181 8.40697C12.4507 11.4589 10.2565 11.6521 9.85043 11.7838C9.67757 11.84 8.0808 12.2404 6.06916 12.1087C6.06916 12.1087 4.57103 13.9473 4.10269 14.4208C4.02848 14.5038 3.94182 14.5282 3.8865 14.516C3.80722 14.4963 3.78325 14.3965 3.78786 14.2596L3.80215 11.7472C0.868125 10.9221 1.04099 7.80877 1.07233 6.18248C1.10829 4.55618 1.40837 3.22571 2.30172 2.32466C3.50437 1.21874 5.66536 1.06966 6.67117 1.06216H6.6721ZM6.89336 2.68798C6.86921 2.68774 6.84525 2.69235 6.82287 2.70156C6.80048 2.71078 6.78011 2.72441 6.76293 2.74166C6.74574 2.75892 6.73209 2.77947 6.72275 2.80212C6.71341 2.82476 6.70857 2.84907 6.70851 2.87363C6.70851 2.97864 6.79241 3.06162 6.89336 3.06162C7.3504 3.05278 7.80465 3.13605 8.22989 3.30663C8.65514 3.47721 9.04297 3.73173 9.37103 4.0555C10.0408 4.71698 10.3672 5.60584 10.3796 6.76802C10.3796 6.87069 10.4612 6.95601 10.5645 6.95601V6.94851C10.6131 6.94863 10.6599 6.92919 10.6945 6.89441C10.7291 6.85964 10.7488 6.81235 10.7493 6.76286C10.7717 6.21583 10.6845 5.66989 10.4929 5.15821C10.3014 4.64653 10.0096 4.1798 9.63516 3.7864C8.90546 3.06115 7.98077 2.68751 6.89336 2.68751V2.68798ZM4.46363 3.11788C4.33315 3.09849 4.20008 3.12513 4.08656 3.19336H4.07688C3.81333 3.35047 3.57591 3.54905 3.37345 3.78171C3.2052 3.97955 3.11393 4.17973 3.08996 4.37241C3.07567 4.48727 3.08535 4.60213 3.119 4.71183L3.13099 4.71933C3.32044 5.28565 3.56798 5.8304 3.87037 6.34328C4.25989 7.06381 4.73926 7.73019 5.29659 8.32587L5.31318 8.35024L5.33946 8.36993L5.35605 8.38962L5.37541 8.4065C5.96324 8.97497 6.62005 9.46478 7.32989 9.86402C8.14118 10.3131 8.63349 10.5255 8.92896 10.6136V10.6183C9.01563 10.6451 9.09445 10.6572 9.17374 10.6572C9.42555 10.6385 9.66394 10.5345 9.85089 10.3619C10.0786 10.1559 10.2717 9.91349 10.4225 9.64415V9.63947C10.564 9.36849 10.5161 9.11206 10.3119 8.9386C9.90289 8.57504 9.46066 8.25212 8.99119 7.97426C8.67682 7.8008 8.35737 7.90581 8.22784 8.08162L7.95173 8.43557C7.81021 8.61137 7.55299 8.58699 7.55299 8.58699L7.54562 8.59168C5.62756 8.09334 5.11589 6.11825 5.11589 6.11825C5.11589 6.11825 5.09192 5.84962 5.26939 5.71273L5.61511 5.42957C5.7806 5.29268 5.89584 4.96826 5.71837 4.64807C5.44704 4.16996 5.13023 3.72009 4.77247 3.30493C4.69426 3.20706 4.58454 3.14047 4.46271 3.11694L4.46363 3.11788ZM7.21234 3.67482C6.96757 3.67482 6.96757 4.05081 7.21465 4.05081C7.51901 4.05583 7.81942 4.1218 8.0987 4.24496C8.37799 4.36811 8.63067 4.54603 8.8423 4.76855C9.03537 4.98515 9.18372 5.23894 9.27858 5.51491C9.37344 5.79088 9.41287 6.08341 9.39454 6.37516C9.39538 6.42453 9.4152 6.47161 9.44975 6.50631C9.48429 6.541 9.53083 6.56057 9.57938 6.5608L9.58676 6.57065C9.63567 6.57028 9.68248 6.55036 9.71706 6.51518C9.75165 6.48001 9.77124 6.4324 9.7716 6.38266C9.7882 5.63772 9.56048 5.0128 9.11381 4.51211C8.66483 4.01143 8.03839 3.73061 7.23862 3.67482H7.21234ZM7.51519 4.68557C7.26305 4.67807 7.25337 5.06156 7.50321 5.06906C8.11076 5.10094 8.40577 5.41316 8.44449 6.05543C8.44534 6.10418 8.46491 6.15066 8.49903 6.18492C8.53314 6.21918 8.57909 6.2385 8.62704 6.23873H8.63441C8.65906 6.23766 8.68325 6.2316 8.70557 6.22091C8.72789 6.21023 8.7479 6.19513 8.76442 6.17649C8.78094 6.15786 8.79365 6.13606 8.8018 6.11238C8.80994 6.08869 8.81337 6.0636 8.81188 6.03855C8.76855 5.20126 8.31957 4.72964 7.52257 4.68604H7.51519V4.68557Z" fill="#879098"/>
</svg>
