<svg width="14" height="10" viewBox="0 0 14 10" fill="none" xmlns="http://www.w3.org/2000/svg">
<path fill-rule="evenodd" clip-rule="evenodd" d="M13.6792 1.46967C13.776 1.15117 13.6792 0.916672 13.2154 0.916672H11.6842C11.2945 0.916672 11.1148 1.11909 11.0174 1.34251C11.0174 1.34251 10.2387 3.20684 9.13558 4.41784C8.77858 4.76901 8.61642 4.88042 8.42158 4.88042C8.32417 4.88042 8.17775 4.76901 8.17775 4.44992V1.46967C8.17775 1.08701 8.07042 0.916672 7.74608 0.916672H5.33808C5.09483 0.916672 4.94842 1.09401 4.94842 1.26259C4.94842 1.62484 5.50025 1.70884 5.55683 2.72851V4.94401C5.55683 5.42992 5.46758 5.51801 5.27275 5.51801C4.75358 5.51801 3.49067 3.64492 2.74108 1.50176C2.59583 1.08467 2.44883 0.916672 2.05742 0.916672H0.525C0.0875 0.916672 0 1.11909 0 1.34251C0 1.74034 0.519167 3.71667 2.41792 6.33059C3.68375 8.11559 5.46583 9.08334 7.08925 9.08334C8.06283 9.08334 8.183 8.86867 8.183 8.49826V7.14901C8.183 6.71909 8.27517 6.63334 8.58375 6.63334C8.81125 6.63334 9.20033 6.74534 10.1092 7.60576C11.1475 8.62601 11.3184 9.08334 11.9029 9.08334H13.4342C13.8717 9.08334 14.091 8.86867 13.965 8.44401C13.8262 8.02167 13.3303 7.40859 12.6729 6.68117C12.3159 6.26701 11.7804 5.82076 11.6177 5.59734C11.3907 5.31092 11.4555 5.18317 11.6177 4.92826C11.6177 4.92826 13.4843 2.34642 13.6786 1.46967H13.6792Z" fill="#879098"/>
</svg>
