<svg width="14" height="14" viewBox="0 0 14 14" fill="none" xmlns="http://www.w3.org/2000/svg">
<path fill-rule="evenodd" clip-rule="evenodd" d="M10.2076 8.38951C10.033 8.30259 9.17662 7.88376 9.01719 7.82543C8.85775 7.76768 8.7417 7.73909 8.62506 7.91293C8.509 8.08559 8.17549 8.47643 8.07409 8.59193C7.9721 8.70801 7.87069 8.72201 7.69661 8.63568C7.52253 8.54818 6.961 8.36559 6.29574 7.77526C5.77817 7.3156 5.42825 6.74801 5.32685 6.57418C5.22544 6.40093 5.31571 6.30701 5.40304 6.22068C5.48159 6.1431 5.57713 6.01826 5.66446 5.91735C5.7518 5.81585 5.78052 5.74351 5.83855 5.62743C5.89716 5.51193 5.86785 5.41101 5.82389 5.3241C5.78052 5.23718 5.43235 4.38377 5.28699 4.03668C5.14573 3.69893 5.00212 3.74502 4.89545 3.73918C4.79346 3.73452 4.6774 3.73335 4.56135 3.73335C4.44529 3.73335 4.25655 3.77652 4.09712 3.95035C3.93711 4.1236 3.48754 4.54302 3.48754 5.39643C3.48754 6.24926 4.11119 7.07351 4.19852 7.1896C4.28586 7.3051 5.42649 9.05626 7.17377 9.80701C7.58993 9.98551 7.91407 10.0923 8.1667 10.1716C8.58403 10.304 8.96385 10.2853 9.26395 10.2404C9.59805 10.1908 10.2944 9.82101 10.4397 9.41617C10.5845 9.01134 10.5845 8.66426 10.5412 8.59193C10.4978 8.51959 10.3823 8.47643 10.2076 8.38951ZM7.02958 12.7079H7.02724C5.98944 12.7081 4.97069 12.4305 4.07778 11.9041L3.86677 11.7793L1.67343 12.3521L2.25899 10.2241L2.12124 10.0059C1.54104 9.08679 1.234 8.02305 1.23558 6.9376C1.23676 3.75843 3.8357 1.17194 7.03193 1.17194C8.57934 1.17194 10.0341 1.77277 11.1279 2.86244C11.6673 3.39711 12.0949 4.03293 12.3859 4.73312C12.6769 5.43332 12.8254 6.18398 12.823 6.94168C12.8218 10.1208 10.2229 12.7079 7.02958 12.7079ZM11.9602 2.03469C11.3144 1.38773 10.546 0.874752 9.6995 0.52549C8.85303 0.176228 7.94533 -0.00237781 7.029 2.39035e-05C3.18743 2.39035e-05 0.0597863 3.1121 0.0586141 6.93701C0.056834 8.15428 0.377694 9.35048 0.988819 10.4049L0 14L3.69503 13.0352C4.71719 13.5894 5.86263 13.8798 7.02665 13.8798H7.02958C10.8711 13.8798 13.9988 10.7678 14 6.94226C14.0028 6.03067 13.824 5.12757 13.4739 4.2852C13.1237 3.44283 12.6093 2.67791 11.9602 2.03469Z" fill="#879098"/>
</svg>
